<svg width="22" height="23" viewBox="0 0 22 23" fill="none" xmlns="http://www.w3.org/2000/svg">
<path d="M11 7.78998C8.79 7.78998 7 9.58872 7 11.8095C7 14.0303 8.79 15.829 11 15.829C13.21 15.829 15 14.0303 15 11.8095C15 9.58872 13.21 7.78998 11 7.78998ZM19.94 10.8046C19.7135 8.76685 18.8042 6.86703 17.3613 5.41714C15.9185 3.96725 14.0279 3.05347 12 2.82586V1.76068C12 1.208 11.55 0.755798 11 0.755798C10.45 0.755798 10 1.208 10 1.76068V2.82586C7.97212 3.05347 6.08154 3.96725 4.63869 5.41714C3.19585 6.86703 2.28651 8.76685 2.06 10.8046H1C0.45 10.8046 0 11.2568 0 11.8095C0 12.3622 0.45 12.8144 1 12.8144H2.06C2.28651 14.8522 3.19585 16.752 4.63869 18.2019C6.08154 19.6518 7.97212 20.5655 10 20.7932V21.8583C10 22.411 10.45 22.8632 11 22.8632C11.55 22.8632 12 22.411 12 21.8583V20.7932C14.0279 20.5655 15.9185 19.6518 17.3613 18.2019C18.8042 16.752 19.7135 14.8522 19.94 12.8144H21C21.55 12.8144 22 12.3622 22 11.8095C22 11.2568 21.55 10.8046 21 10.8046H19.94V10.8046ZM11 18.8437C7.13 18.8437 4 15.6984 4 11.8095C4 7.92061 7.13 4.77533 11 4.77533C14.87 4.77533 18 7.92061 18 11.8095C18 15.6984 14.87 18.8437 11 18.8437Z" fill="#EE2211"/>
</svg>
